<svg width="752" height="400" viewBox="0 0 752 400" fill="none" xmlns="http://www.w3.org/2000/svg">
<path d="M552 0H200C90 0 0 90 0 200C0 310 90 400 200 400H552C662 400 752 310 752 200C752 90 662 0 552 0Z" fill="white"/>
<path d="M552 16.2C576.7 16.2 600.7 21.1 623.3 30.7C645.2 40 664.8 53.3 681.8 70.2C698.7 87.1 712 106.8 721.3 128.7C730.9 151.3 735.8 175.3 735.8 200C735.8 224.7 730.9 248.7 721.3 271.3C712 293.2 698.7 312.8 681.8 329.8C664.9 346.7 645.2 360 623.3 369.3C600.7 378.9 576.7 383.8 552 383.8H200C175.3 383.8 151.3 378.9 128.7 369.3C106.8 360 87.2 346.7 70.2 329.8C53.3 312.9 40 293.2 30.7 271.3C21.1 248.7 16.2 224.7 16.2 200C16.2 175.3 21.1 151.3 30.7 128.7C40 106.8 53.3 87.2 70.2 70.2C87.1 53.3 106.8 40 128.7 30.7C151.3 21.1 175.3 16.2 200 16.2H552ZM552 0H200C90 0 0 90 0 200C0 310 90 400 200 400H552C662 400 752 310 752 200C752 90 662 0 552 0Z" fill="#3C4043"/>
<path d="M358.6 214.2V274.7H339.4V125.3H390.3C403.2 125.3 414.2 129.6 423.2 138.2C432.4 146.8 437 157.3 437 169.7C437 182.4 432.4 192.9 423.2 201.4C414.3 209.9 403.3 214.1 390.3 214.1H358.6V214.2ZM358.6 143.7V195.8H390.7C398.3 195.8 404.7 193.2 409.7 188.1C414.8 183 417.4 176.8 417.4 169.8C417.4 162.9 414.8 156.8 409.7 151.7C404.7 146.4 398.4 143.8 390.7 143.8H358.6V143.7Z" fill="#3C4043"/>
<path d="M487.2 169.1C501.4 169.1 512.6 172.9 520.8 180.5C529 188.1 533.1 198.5 533.1 211.7V274.7H514.8V260.5H514C506.1 272.2 495.5 278 482.3 278C471 278 461.6 274.7 454 268C446.4 261.3 442.6 253 442.6 243C442.6 232.4 446.6 224 454.6 217.8C462.6 211.5 473.3 208.4 486.6 208.4C498 208.4 507.4 210.5 514.7 214.7V210.3C514.7 203.6 512.1 198 506.8 193.3C501.5 188.6 495.3 186.3 488.2 186.3C477.5 186.3 469 190.8 462.8 199.9L445.9 189.3C455.2 175.8 469 169.1 487.2 169.1ZM462.4 243.3C462.4 248.3 464.5 252.5 468.8 255.8C473 259.1 478 260.8 483.7 260.8C491.8 260.8 499 257.8 505.3 251.8C511.6 245.8 514.8 238.8 514.8 230.7C508.8 226 500.5 223.6 489.8 223.6C482 223.6 475.5 225.5 470.3 229.2C465 233.1 462.4 237.8 462.4 243.3Z" fill="#3C4043"/>
<path d="M637.5 172.4L573.5 319.6H553.7L577.5 268.1L535.3 172.4H556.2L586.6 245.8H587L616.6 172.4H637.5Z" fill="#3C4043"/>
<path d="M282.23 202C282.23 195.74 281.67 189.75 280.63 183.99H200.15V216.99L246.5 217C244.62 227.98 238.57 237.34 229.3 243.58V264.99H256.89C273 250.08 282.23 228.04 282.23 202Z" fill="#4285F4"/>
<path d="M229.31 243.58C221.63 248.76 211.74 251.79 200.17 251.79C177.82 251.79 158.86 236.73 152.07 216.43H123.61V238.51C137.71 266.49 166.69 285.69 200.17 285.69C223.31 285.69 242.75 278.08 256.9 264.98L229.31 243.58Z" fill="#34A853"/>
<path d="M149.39 200.05C149.39 194.35 150.34 188.84 152.07 183.66V161.58H123.61C117.78 173.15 114.5 186.21 114.5 200.05C114.5 213.89 117.79 226.95 123.61 238.52L152.07 216.44C150.34 211.26 149.39 205.75 149.39 200.05Z" fill="#FABB05"/>
<path d="M200.17 148.3C212.8 148.3 224.11 152.65 233.04 161.15L257.49 136.72C242.64 122.89 223.28 114.4 200.17 114.4C166.7 114.4 137.71 133.6 123.61 161.58L152.07 183.66C158.86 163.36 177.82 148.3 200.17 148.3Z" fill="#E94235"/>
</svg>
