<svg xmlns="http://www.w3.org/2000/svg" fill="none" viewBox="0 0 780 500"><path fill="#E21836" d="M153.47 6H347.8c27.12 0 44 22.11 37.66 49.33L295 443.76C288.61 470.88 261.45 493 234.3 493H40c-27.1 0-44-22.13-37.67-49.25l90.5-388.43C99.18 28.1 126.32 6 153.48 6z"/><path fill="#00447C" d="M331.63 6H555.1c27.12 0 14.89 22.11 8.5 49.33l-90.45 388.43C466.8 470.88 468.78 493 441.6 493H218.13c-27.17 0-44-22.13-37.6-49.25l90.45-388.43C277.4 28.1 304.48 6 331.63 6z"/><path fill="#007B84" d="M546.23 6h194.33c27.16 0 44.03 22.11 37.65 49.33l-90.46 388.43C681.37 470.88 654.2 493 627.03 493H432.8c-27.18 0-44.04-22.13-37.67-49.25L485.6 55.33C491.93 28.1 519.05 6 546.23 6z"/><path fill="#FEFEFE" d="M204.22 130.48c-19.98.2-25.88 0-27.77-.44-.72 3.44-14.2 65.65-14.25 65.7-2.9 12.58-5.01 21.55-12.19 27.35-4.07 3.36-8.83 4.99-14.34 4.99-8.86 0-14.03-4.4-14.9-12.75l-.16-2.86s2.7-16.86 2.7-16.96c0 0 14.15-56.68 16.69-64.18.13-.42.17-.64.2-.85-27.55.24-32.43 0-32.76-.44-.19.6-.87 4.12-.87 4.12l-14.45 63.9-1.24 5.41-2.4 17.73c0 5.25 1.03 9.55 3.08 13.17 6.59 11.5 25.37 13.23 36 13.23 13.68 0 26.52-2.9 35.2-8.22 15.06-8.9 19-22.8 22.52-35.17l1.62-6.34s14.58-58.88 17.06-66.54c.1-.42.13-.64.26-.85zm49.6 47.5c-3.5 0-9.93.85-15.7 3.68-2.1 1.07-4.08 2.31-6.16 3.55l1.88-6.8-1.03-1.15c-12.24 2.47-14.97 2.8-26.27 4.4l-.95.63c-1.31 10.88-2.48 19.06-7.34 40.44a2528.9 2528.9 0 01-5.7 23.7l.51 1c11.59-.6 15.1-.6 25.16-.44l.82-.89c1.28-6.55 1.45-8.08 4.28-21.35 1.33-6.29 4.1-20.11 5.47-25.03 2.52-1.17 5-2.31 7.37-2.31 5.64 0 4.95 4.92 4.73 6.88-.24 3.29-2.3 14.04-4.4 23.27l-1.4 5.96c-.99 4.4-2.06 8.68-3.04 13.04l.42.87a270.6 270.6 0 0124.65-.44l1.14-.89a585.15 585.15 0 015.4-27.86l1.58-6.85c3.06-13.4 4.59-20.18 2.28-25.72-2.45-6.2-8.3-7.7-13.7-7.7zM309.25 192c-6.07 1.17-9.94 1.94-13.79 2.44-3.8.62-7.53 1.17-13.39 1.99l-.46.42-.43.33c-.61 4.37-1.04 8.14-1.85 12.58a230.3 230.3 0 01-3.46 17.3c-1.33 5.74-2.02 7.74-2.78 9.75-.73 2.02-1.55 3.98-3.05 9.62l.36.52.29.48c5.48-.26 9.06-.44 12.75-.48 3.68-.13 7.5 0 13.4.04l.51-.42.56-.47c.85-5.09.98-6.45 1.5-8.94.51-2.66 1.4-6.34 3.59-16.19 1.03-4.62 2.18-9.23 3.25-13.94 1.11-4.7 2.28-9.33 3.39-13.95l-.17-.56-.22-.52zm.13-18.9c-5.51-3.26-15.2-2.23-21.7 2.27-6.5 4.4-7.24 10.65-1.74 13.95 5.42 3.16 15.13 2.22 21.59-2.31 6.48-4.5 7.29-10.7 1.85-13.92zm33.34 75.35c11.16 0 22.59-3.07 31.2-12.2 6.62-7.4 9.65-18.4 10.7-22.93 3.43-15.03.76-22.04-2.59-26.31-5.08-6.52-14.07-8.6-23.4-8.6-5.6 0-18.96.55-29.4 10.17-7.5 6.94-10.95 16.35-13.04 25.38-2.11 9.2-4.54 25.76 10.7 31.92 4.69 2.02 11.46 2.57 15.83 2.57zm-.87-33.8c2.57-11.38 5.6-20.93 13.36-20.93 6.07 0 6.5 7.1 3.8 18.52-.47 2.54-2.7 11.96-5.69 15.97-2.1 2.96-4.57 4.75-7.3 4.75-.82 0-5.67 0-5.74-7.2-.04-3.54.68-7.17 1.57-11.11zm70.66 32.34l.87-.89c1.24-6.55 1.44-8.09 4.18-21.35 1.37-6.29 4.2-20.11 5.53-25.03 2.52-1.17 4.96-2.32 7.4-2.32 5.6 0 4.92 4.92 4.7 6.88-.2 3.3-2.26 14.05-4.4 23.28l-1.33 5.96c-1.02 4.4-2.13 8.68-3.11 13.04l.43.88c11.45-.62 14.8-.62 24.6-.45l1.19-.89a450 450 0 015.4-27.86l1.53-6.85c3.07-13.4 4.63-20.18 2.35-25.71-2.51-6.2-8.41-7.7-13.72-7.7-3.52 0-9.98.85-15.71 3.68-2.06 1.07-4.11 2.31-6.13 3.55l1.76-6.8-.94-1.16c-12.23 2.49-15.03 2.82-26.31 4.4l-.87.64c-1.37 10.88-2.48 19.05-7.35 40.44-1.85 7.89-3.77 15.84-5.7 23.7l.52 1c11.6-.6 15.06-.6 25.1-.44zm84.14.44c.73-3.51 5-24.34 5.04-24.34 0 0 3.64-15.29 3.87-15.84 0 0 1.14-1.6 2.29-2.22h1.68c15.91 0 33.88 0 47.96-10.36 9.58-7.1 16.13-17.6 19.06-30.35a45.87 45.87 0 001.31-10.56c0-4.88-.98-9.72-3.81-13.5-7.18-10.04-21.48-10.22-37.99-10.3l-8.13.08c-21.13.26-29.6.18-33.09-.24l-.85 4.27s-7.57 35.08-7.57 35.14l-18.96 78.1c18.45-.23 26.01-.23 29.2.12zm14.03-62.31s8.05-35 8.01-34.88l.26-1.8.11-1.36 3.22.33 16.99 1.47c6.55 2.53 9.25 9.06 7.36 17.59-1.72 7.79-6.77 14.34-13.27 17.5-5.34 2.68-11.9 2.9-18.64 2.9h-4.37l.33-1.75zm50.1 30.18c-2.12 9.06-4.57 25.62 10.59 31.52a29.6 29.6 0 0013.56 2.45c4.64-.25 8.95-2.59 12.94-5.94l-1.08 4.14.68.89c10.9-.46 14.28-.46 26.1-.37l1.06-.82c1.73-10.13 3.35-19.97 7.83-39.37 2.19-9.29 4.37-18.48 6.6-27.73l-.34-1.02a491.5 491.5 0 01-27.18 4.4l-.9.73-.35 2.75a16.76 16.76 0 00-8.54-7.03c-5.22-2.05-17.47.6-28 10.18-7.4 6.84-10.95 16.22-12.97 25.22zm25.61.55c2.61-11.17 5.6-20.63 13.38-20.63 4.9 0 7.5 4.54 6.97 12.27-.42 1.92-.87 3.96-1.4 6.25-.78 3.32-1.62 6.61-2.44 9.91a24.03 24.03 0 01-2.87 5.8c-2 2.83-6.76 4.59-9.5 4.59-.77 0-5.56 0-5.73-7.07-.04-3.52.69-7.14 1.6-11.12zm133.72-36.9l-.95-1.07c-12.06 2.45-14.25 2.84-25.33 4.33l-.81.82c-.04.13-.07.33-.13.52l-.04-.19c-8.25 19.04-8 14.93-14.73 29.92-.03-.68-.03-1.11-.07-1.84l-1.68-32.48-1.06-1.08c-12.63 2.45-12.93 2.84-24.6 4.33l-.91.82c-.13.38-.13.81-.2 1.28l.07.16c1.46 7.46 1.1 5.8 2.57 17.56.68 5.77 1.6 11.58 2.27 17.28 1.15 9.55 1.8 14.25 3.2 28.81-7.88 13-9.74 17.93-17.33 29.34l.05.12-5.34 8.45c-.61.89-1.17 1.5-1.94 1.76-.86.42-1.96.5-3.5.5h-2.96l-4.4 14.63 15.1.26c8.85-.04 14.42-4.18 17.42-9.75l9.5-16.27h-.16l1-1.14c6.39-13.75 54.96-97.06 54.96-97.06zM560.76 371.19h-6.4l23.7-78.4h7.86l2.5-8.07.24 8.98c-.3 5.55 4.08 10.47 15.55 9.66h13.26l4.57-15.1h-5c-2.86 0-4.2-.72-4.03-2.28l-.24-9.14h-24.57v.05c-7.94.17-31.66.76-36.46 2.04-5.82 1.5-11.94 5.9-11.94 5.9l2.4-8.08h-22.98l-4.78 16.04-24.02 79.6h-4.66l-4.57 14.98h45.77l-1.54 5H548l1.5-5h6.33l4.95-16.18zM542 308.7c-3.68 1.02-10.52 4.1-10.52 4.1l6.09-20.03h18.26l-4.41 14.6s-5.64.33-9.42 1.33zm.36 28.63s-5.74.72-9.52 1.57c-3.71 1.13-10.69 4.68-10.69 4.68l6.3-20.85h18.35l-4.44 14.6zm-10.24 34.02H513.8l5.3-17.6h18.27l-5.26 17.6zm44.11-48.62h26.4l-3.79 12.28h-26.75l-4.02 13.44h23.41l-17.72 24.95a7.3 7.3 0 01-3.6 3 10.52 10.52 0 01-4.75 1.37h-6.5l-4.45 14.71h16.98c8.83 0 14.04-4.01 17.9-9.29l12.15-16.63 2.6 16.89a7.94 7.94 0 004.38 5.74c1.7.85 3.45 2.31 5.93 2.53 2.67.11 4.59.2 5.87.2h8.34l5.02-16.46h-3.3c-1.89 0-5.14-.32-5.7-.91-.55-.72-.55-1.83-.85-3.51l-2.64-16.93h-10.85l4.76-5.66h26.7l4.1-13.44h-24.72l3.86-12.28h24.64l4.57-15.16h-73.47l-4.5 15.16zm-222.98 52.04l6.16-20.5h25.33l4.62-15.24H364l3.87-12.62h24.77l4.6-14.77h-61.99l-4.5 14.77h14.09l-3.76 12.62h-14.12l-4.68 15.5h14.08l-8.21 27.13c-1.11 3.59.52 4.95 1.55 6.62a6.79 6.79 0 004.53 3.31c2.48.56 4.19.89 6.5.89h28.55l5.09-16.9-12.66 1.75c-2.44 0-9.21-.3-8.47-2.56zm2.9-98.13l-6.42 11.6c-1.37 2.53-2.6 4.1-3.72 4.83-.98.61-2.92.87-5.74.87h-3.34l-4.48 14.84h11.12a25.2 25.2 0 0011.42-2.95c2.1-1.12 2.66-.48 4.29-2.05l3.75-3.26h34.73l4.61-15.45h-25.42l4.44-8.43h-25.24zm51.27 98.43c-.6-.85-.17-2.35.74-5.48l9.5-31.42h33.76c4.92-.07 8.47-.12 10.78-.29a22.06 22.06 0 008.13-2.74 15.2 15.2 0 005.9-5.44c1.46-2.01 3.81-6.42 5.83-13.21l11.93-39.76-35.04.2s-10.79 1.6-15.54 3.35c-4.8 1.96-11.64 7.44-11.64 7.44l3.16-10.9h-21.65l-30.3 100.5c-1.07 3.9-1.8 6.74-1.96 8.44-.06 1.84 2.31 3.65 3.85 5.02 1.81 1.37 4.5 1.14 7.06 1.37 2.7.2 6.55.33 11.86.33h16.64l5.1-17.24-14.89 1.4c-1.59 0-2.74-.85-3.22-1.57zm16.36-58.12h35.46l-2.25 7.07c-.32.17-1.08-.35-4.69.08h-30.7l2.18-7.15zm7.1-23.7h35.77l-2.57 8.51s-16.86-.16-19.56.34c-11.88 2.05-18.82 8.4-18.82 8.4l5.18-17.25zm26.9 54.44a3.79 3.79 0 01-1.4 2.18c-.72.46-1.89.63-3.63.63h-5.05l.3-8.6h-21.02l-.86 42.07c-.03 3.03.26 4.8 2.49 6.2 2.22 1.75 9.06 1.98 18.27 1.98h13.18l4.75-15.75-11.47.63-3.8.22c-.53-.22-1.03-.43-1.58-.98-.48-.48-1.3-.18-1.17-3.22l.1-10.79 12.02-.5c6.5 0 9.27-2.1 11.64-4.12 2.26-1.93 3-4.14 3.85-7.14l2.02-9.55h-16.53l-2.1 6.74z"/></svg>